<?xml version="1.0" encoding="UTF-8"?>
<svg id="Capa_1" data-name="Capa 1" xmlns="http://www.w3.org/2000/svg" viewBox="0 0 179.01 174.83">
  <defs>
    <style>
      .cls-1 {
        fill: #1d1e1c;
      }
    </style>
  </defs>
  <path class="cls-1" d="M147.74,0H31.29C14.29.95,1.5,12.84,0,29.89l.02,115.73c2.02,17.05,14.56,28.28,31.62,29.21h115.4c17.16-.88,29.46-11.61,31.97-28.68V28.68c-1.45-15.77-15.55-28.36-31.28-28.68ZM78.5,123.08l-6.98-18.55-27.42.06-6.15,18.49h-15.38c-.18-.05-.6-.52-.47-.8l25.03-72.53.44-4.63,20.12-.02,27.61,77.99h-16.78ZM152.83,97.07c-.17.19-.38.35-.63.42-.2.05-2.59.42-2.73.42h-33.39c2.34,15.7,20.77,14.06,32.16,10.14v13.11c-2.03,1.3-4.89,2.04-7.27,2.52-15.31,3.09-32.24.36-38.94-15.39-7.79-18.33,1.07-43.64,22.96-45.33,21.4-1.65,31.51,14.3,27.82,34.12Z"/>
  <polygon class="cls-1" points="48.61 89.86 67.49 89.86 57.88 59.09 48.61 89.86"/>
  <path class="cls-1" d="M116.09,86.72h20.8c.1,0,.81-.36.89-.59-.36-14.46-20.72-13.31-21.69.59Z"/>
</svg>