<?xml version="1.0" encoding="UTF-8"?>
<svg id="Capa_1" data-name="Capa 1" xmlns="http://www.w3.org/2000/svg" viewBox="0 0 179.01 174.88">
  <defs>
    <style>
      .cls-1 {
        fill: #1d1e1c;
      }
    </style>
  </defs>
  <path class="cls-1" d="M147.72,0H31.62C14.81.88,2.65,11.71,0,28.33v118.17c1.42,14.07,13.52,26.26,27.49,27.93,39.91.92,79.93.12,119.89.41,17.16-.94,29.84-12.34,31.62-29.56l.02-115.03C177.74,13,164.85.96,147.72,0ZM109.95,123.43h-16.43l-6.8-18.37h-27.65l-6.45,18.37h-15.03c-.26-.08-.55-.56-.54-.87l24.59-71.22.75-6.24,20.49-.17,27.6,77.65c.07.29-.37.85-.52.85ZM134.95,122.9l-.52.52h-15.91c.11-.34-.35-.76-.35-.87v-58.03l.52-.52h15.73l.52.52v58.38ZM127.42,57.71c-12.2.69-13.55-17.28-2-18.79,13.48-1.76,14.06,18.11,2,18.79Z"/>
  <polygon class="cls-1" points="63.42 89.14 63.8 89.87 82.16 89.87 72.37 58.75 63.42 89.14"/>
</svg>