<?xml version="1.0" encoding="UTF-8"?>
<svg id="Capa_1" data-name="Capa 1" xmlns="http://www.w3.org/2000/svg" viewBox="0 0 179.02 174.88">
  <defs>
    <style>
      .cls-1 {
        fill: #1d1e1c;
      }
    </style>
  </defs>
  <path class="cls-1" d="M147.72,0H31.62C14.81.88,2.65,11.71,0,28.33v118.17c1.42,14.07,13.52,26.26,27.49,27.93,39.91.92,79.93.12,119.88.41,17.16-.94,29.84-12.34,31.62-29.56l.02-115.03C177.74,13,164.85.96,147.72,0ZM58.41,81.22h-5.98v-5.46h-17.69v24.45h17.69v-5.46h5.98v6.24c0,1.47-.5,2.71-1.5,3.71-1,1-2.23,1.49-3.71,1.49h-19.25c-1.47,0-2.71-.5-3.71-1.49-1-1-1.5-2.23-1.5-3.71v-26.01c0-1.47.5-2.71,1.5-3.71,1-1,2.23-1.49,3.71-1.49h19.25c1.47,0,2.71.5,3.71,1.49,1,1,1.5,2.23,1.5,3.71v6.24ZM101.71,81.22h-5.98v-5.46h-17.69v10.14h19.51c1.18,0,2.17.4,2.96,1.2s1.2,1.79,1.2,2.97v10.92c0,1.47-.5,2.71-1.5,3.71-1,1-2.23,1.49-3.71,1.49h-19.25c-1.47,0-2.71-.5-3.71-1.49-1-1-1.49-2.23-1.49-3.71v-6.24h5.98v5.46h17.69v-10.14h-19.51c-1.18,0-2.17-.4-2.97-1.2-.8-.8-1.2-1.79-1.2-2.97v-10.92c0-1.47.5-2.71,1.49-3.71,1-1,2.23-1.49,3.71-1.49h19.25c1.47,0,2.71.5,3.71,1.49,1,1,1.5,2.23,1.5,3.71v6.24ZM145.02,81.22h-5.98v-5.46h-17.69v10.14h19.51c1.18,0,2.17.4,2.96,1.2.8.8,1.2,1.79,1.2,2.97v10.92c0,1.47-.5,2.71-1.5,3.71-1,1-2.23,1.49-3.71,1.49h-19.25c-1.47,0-2.71-.5-3.71-1.49-1-1-1.5-2.23-1.5-3.71v-6.24h5.98v5.46h17.69v-10.14h-19.51c-1.18,0-2.17-.4-2.96-1.2-.8-.8-1.2-1.79-1.2-2.97v-10.92c0-1.47.5-2.71,1.5-3.71s2.23-1.49,3.71-1.49h19.25c1.47,0,2.71.5,3.71,1.49,1,1,1.5,2.23,1.5,3.71v6.24Z"/>
</svg>