<?xml version="1.0" encoding="UTF-8"?>
<svg id="Capa_1" data-name="Capa 1" xmlns="http://www.w3.org/2000/svg" viewBox="0 0 179.02 174.83">
  <defs>
    <style>
      .cls-1 {
        fill: #1d1e1c;
      }
    </style>
  </defs>
  <path class="cls-1" d="M55.31,119.06c-7.78,13.74,6.23,28.79,20.54,22.64,4.56-1.96,9.8-8.12,9.8-13.27v-17.31h-18.7c-4.05,0-9.7,4.5-11.64,7.94Z"/>
  <path class="cls-1" d="M69.05,31.42c-13.78,0-21.02,16.97-11.7,27.08,1.82,1.97,6.96,5.08,9.6,5.08h18.7v-31.64l-.52-.52h-16.08Z"/>
  <path class="cls-1" d="M97.01,97.5c13.93,17.28,40.2-5.73,24.18-21.56-14.2-14.03-37.04,5.6-24.18,21.56Z"/>
  <path class="cls-1" d="M53.12,88.24c.33,7.08,7.15,15.19,14.52,15.19h18v-32.16h-18c-8.24,0-14.88,9.16-14.52,16.97Z"/>
  <path class="cls-1" d="M109.95,31.42h-16.08l-.52.52v31.64h18.7c2.65,0,7.79-3.11,9.6-5.08,9.32-10.11,2.08-27.08-11.7-27.08Z"/>
  <path class="cls-1" d="M147.74,0H31.29C14.29.95,1.5,12.84,0,29.89l.02,115.73c2.02,17.05,14.57,28.28,31.62,29.21h115.4c17.15-.88,29.46-11.61,31.97-28.68V28.68c-1.46-15.77-15.56-28.36-31.28-28.68ZM133.02,81.76c4.63,20.88-16.92,36.3-35.37,26.28l-4.31-2.86v24.65c-.96,9.44-9.02,18.15-18.11,20.35-26.05,6.28-41.29-27.45-19.52-42.52l.22-.72c-14.06-8.51-14.02-30.36-.22-39.13l.22-.72c-17.78-11.21-11.99-39.03,8.66-42.91,15.02.03,31.82-1.56,46.75-.44,16.08,1.21,26.57,17.42,20.72,32.6-1.85,4.81-5.29,8.08-9.01,11.44,4.9,2.72,8.76,8.56,9.96,13.99Z"/>
</svg>