<?xml version="1.0" encoding="UTF-8"?>
<svg id="Capa_1" data-name="Capa 1" xmlns="http://www.w3.org/2000/svg" viewBox="0 0 179.01 174.89">
  <defs>
    <style>
      .cls-1 {
        fill: #1d1e1c;
      }
    </style>
  </defs>
  <path class="cls-1" d="M152.17.52c-9.95-.26-19.91-.39-29.87-.46-1.24,0-2.47,0-3.71-.02-3.7-.02-7.4-.03-11.1-.04-25.4-.02-50.82.26-76.2.05-.27.01-.52.06-.79.08C14.51,1.36,2.44,12.28.24,28.08c-.09.62-.19,1.23-.24,1.86l.02,115.73c.06.47.15.92.22,1.39,2.52,16.29,14.8,26.91,31.4,27.82h115.4c17.16-.88,29.46-11.61,31.97-28.68V28.74c-1.3-14.07-12.94-26.14-26.84-28.22ZM110.71,141.85c-2.52.92-6.86,2.75-7.34-1.39-.58-5,.47-10.72.07-15.97-.26-3.44-1.15-6.68-3.56-9.38,13.8-1.07,23.39-7.57,25.13-21.9.76-6.26.15-11.58-3.16-17.03-.37-.6-2.22-2.61-2.26-2.85-.09-.61.78-2.62.88-3.55.38-3.6-.11-7.36-1.33-10.75-1.26-.29-2.51-.3-3.75-.12-3.22.46-6.34,2.23-9.22,3.94-1.78.18-3.52.49-5.2.92-8.23-1.76-16.94-1.6-25.05.6-3.35-1.91-7.02-4.29-10.87-5.21-1.46-.35-2.94-.51-4.45-.33-1.47,1.06-2.07,7.67-1.92,9.55.1,1.25,1.07,4.01.94,4.87-.11.71-1.77,2.38-2.31,3.29-6.37,10.84-3.45,27.9,7.74,34.51.35.2.68.43,1.04.62,4.18,2.12,8.16,2.58,12.64,3.45.31.06.8-.12.53.51-.22.51-1.65,1.71-2.16,2.74-.67,1.36-.78,2.87-1.33,4.27-3.17,1.49-7.38,1.8-10.62.46-.06-.02-.11-.06-.17-.08-5.67-2.49-6.5-10.54-13.87-10.73-6.47-.17,1.13,4.25,2.27,5.45,1.59,1.68,2.45,3.74,3.4,5.74.76,1.58,1.57,3.12,2.88,4.41,4.45,4.36,10.32,4.15,16.09,3.31-.49,2.66.65,8.01,0,10.31-.46,1.63-2.84,1.67-4.21,1.41-10.91-2.04-25.09-15.34-30.46-24.78-13.33-23.41-7.68-47.87,7.31-63.97,3.32-3.57,7.1-6.71,11.24-9.36,15.03-9.6,34.72-12.44,54.12-3.53.56.26,1.09.55,1.63.83,6.59,3.28,12.09,7.59,16.51,12.6,23.64,26.83,16.12,73.46-21.18,87.14Z"/>
</svg>