<?xml version="1.0" encoding="UTF-8"?>
<svg id="Capa_1" data-name="Capa 1" xmlns="http://www.w3.org/2000/svg" viewBox="0 0 179.02 174.88">
  <defs>
    <style>
      .cls-1 {
        fill: #1d1e1c;
      }
    </style>
  </defs>
  <path class="cls-1" d="M147.72,0H31.62C14.81.88,2.65,11.71,0,28.33v118.17c1.42,14.07,13.52,26.26,27.49,27.93,39.91.92,79.93.12,119.88.41,17.16-.94,29.84-12.34,31.62-29.56l.02-115.03C177.74,13,164.85.96,147.72,0ZM42.18,105.06h-5.61v-15.86h-16.59v15.86h-5.61v-34.16h5.61v12.69h16.59v-12.69h5.61v34.16ZM81.46,76.52h-12.32v28.54h-5.61v-28.54h-12.32v-5.61h30.25v5.61ZM127.81,105.06h-5.61v-28.54h-10.25v22.2h-5.61v-22.2h-10.25v28.54h-5.61v-29.28c0-1.38.47-2.54,1.4-3.48.94-.93,2.09-1.4,3.48-1.4h27.57c1.38,0,2.54.47,3.48,1.4.94.94,1.4,2.1,1.4,3.48v29.28ZM164.65,105.06h-22.93v-34.16h5.61v28.54h17.32v5.61Z"/>
</svg>