<?xml version="1.0" encoding="UTF-8"?>
<svg id="Capa_1" data-name="Capa 1" xmlns="http://www.w3.org/2000/svg" viewBox="0 0 179.01 174.89">
  <defs>
    <style>
      .cls-1 {
        fill: #1d1e1c;
      }
    </style>
  </defs>
  <path class="cls-1" d="M152.17.52C111.94-.52,71.58.38,31.29.06,14.28,1.01,1.5,12.87,0,29.95l.02,115.73c2.01,17.08,14.55,28.28,31.62,29.21h115.4c17.16-.88,29.46-11.61,31.97-28.68V28.74c-1.3-14.07-12.94-26.14-26.84-28.22ZM65.04,122.96l-.52.52h-15.91l-.36-2.26.17-75.37.72-1.03h15.56c-.11.34.35.76.35.87v77.26ZM114.16,124.53c-19.64,1.94-36.4-6.47-37.58-27.79-1.22-22.02,17.19-36.31,38.29-33.82l.51-.44v-23.95h16.43l.37,81.22c-5.56,2.66-11.88,4.17-18.03,4.78Z"/>
  <path class="cls-1" d="M94.31,99.28c2.53,10.22,11.77,12.11,21.08,10.56v-32.86c-14.65-2.63-24.72,7.55-21.08,22.3Z"/>
</svg>