<?xml version="1.0" encoding="UTF-8"?>
<svg id="Capa_1" data-name="Capa 1" xmlns="http://www.w3.org/2000/svg" viewBox="0 0 179.02 174.88">
  <defs>
    <style>
      .cls-1 {
        fill: #1d1e1c;
      }
    </style>
  </defs>
  <path class="cls-1" d="M147.72,0H31.62C14.81.88,2.65,11.71,0,28.33v118.17c1.42,14.07,13.52,26.26,27.49,27.93,39.91.92,79.93.12,119.88.41,17.16-.94,29.84-12.34,31.62-29.56l.02-115.03C177.74,13,164.85.96,147.72,0ZM77.1,107.17c0,2.24-.77,4.12-2.31,5.64-1.54,1.52-3.41,2.28-5.62,2.28h-18.61c-2.2,0-4.07-.77-5.62-2.31-1.54-1.54-2.31-3.41-2.31-5.61v-11.72h7.93v11.72h18.61v-40.33h7.93v40.33ZM136.38,82.01h-7.93v-7.24h-23.44v13.44h25.85c1.56,0,2.87.53,3.93,1.59,1.06,1.06,1.58,2.37,1.58,3.93v14.47c0,1.95-.66,3.59-1.98,4.91-1.32,1.32-2.96,1.98-4.91,1.98h-25.5c-1.95,0-3.59-.66-4.91-1.98-1.32-1.32-1.98-2.96-1.98-4.91v-8.27h7.93v7.24h23.44v-13.44h-25.85c-1.56,0-2.87-.53-3.93-1.59-1.06-1.06-1.58-2.37-1.58-3.93v-14.47c0-1.95.66-3.59,1.98-4.91,1.32-1.32,2.96-1.98,4.91-1.98h25.5c1.95,0,3.59.66,4.91,1.98,1.32,1.32,1.98,2.96,1.98,4.91v8.27Z"/>
</svg>