<?xml version="1.0" encoding="UTF-8"?>
<svg id="Capa_1" data-name="Capa 1" xmlns="http://www.w3.org/2000/svg" viewBox="0 0 179.01 174.88">
  <defs>
    <style>
      .cls-1 {
        fill: #1d1e1c;
      }
    </style>
  </defs>
  <path class="cls-1" d="M147.72,0H31.62C14.81.88,2.65,11.71,0,28.33v118.17c1.42,14.07,13.52,26.26,27.49,27.93,39.91.92,79.93.12,119.89.41,17.16-.94,29.84-12.34,31.62-29.56l.02-115.03C177.73,13,164.85.96,147.72,0ZM81.69,95.52c-8.1,3.51-16.75,3.17-25.41,3.09v24.82h-15.56l-.52-.52V45.64c1.16-.62,3.6-.81,5.06-.89,10.35-.56,26.36-1.3,35.84,2.64,20.58,8.56,20.95,39.31.59,48.13ZM109.7,123.33c-1.8-.52-3.82-1.15-5.17-2.52v-13.63l.87-.53c5.67,3.14,13.39,5.41,19.93,4.9,2.88-.23,7.59-1.32,6.32-5.26-1.02-3.15-11.96-6.44-15.23-8.19-8.88-4.75-14.31-12.33-10.49-22.74,4.65-12.65,20.67-13.41,31.95-11.66,1.13.18,6.17,1.36,6.69,2.05.73.99.7,10.32.55,12.07-.06.63-.13,1.74-.71,2.1-.62.39-4.62-1.61-5.76-1.95-3.87-1.16-13.84-2.81-17.1-.29-2.89,2.24-.49,5.11,1.77,6.53,8.92,5.61,23.58,6.36,24.59,20.16,1.53,20.74-23.15,23.33-38.2,18.97Z"/>
  <path class="cls-1" d="M56.64,59.45v25.17h9.26c9.7,0,17.31-7.78,13.73-17.58-3.24-8.86-15.3-8.2-22.99-7.6Z"/>
</svg>