<?xml version="1.0" encoding="UTF-8"?>
<svg id="Capa_1" data-name="Capa 1" xmlns="http://www.w3.org/2000/svg" viewBox="0 0 179.01 174.88">
  <defs>
    <style>
      .cls-1 {
        fill: #1d1e1c;
      }
    </style>
  </defs>
  <path class="cls-1" d="M147.72,0h-3.44s-112.66,0-112.66,0c-.08,0-.15.01-.23.02C14.71.98,2.64,11.78,0,28.32c0,0,0,0,0,.01v118.17s0,.01,0,.02c1.43,14.06,13.53,26.24,27.48,27.91,39.91.92,79.93.12,119.89.41,17.16-.94,29.84-12.34,31.62-29.56v-51.91s.02-63.16.02-63.16C177.71,12.99,164.84.96,147.72,0ZM148.25,127.52c-.07,1.99-1.23,3.74-2.64,5.06-8.26,3.61-17.01,9.29-25.35,12.4-4.98,1.86-6.87.51-10.31-2.96-12.53-12.65-23.93-27.29-36.37-40.2-.27-.28-.41-.65-.55-1.01h-.76c-.6.46-1.19.92-1.8,1.37-7.59,5.54-14.79,13.19-22.4,18.51-1.13.79-2.01,1.44-3.49,1.43-1.39,0-9.35-3.31-10.9-4.16-1.29-.72-2.19-1.46-2.68-2.92l-.25-53.97c0-1.4.86-2.81,1.94-3.65.9-.7,9.06-4.23,10.21-4.47.93-.19,2.71-.2,3.61.08l26.03,21.11,38.61-42.78c2.1-2,4.25-2.59,7.15-2.23,8.26,4.07,17.96,7.59,25.85,12.26,2.49,1.47,3.81,3.01,4.09,6.05v80.09Z"/>
  <polygon class="cls-1" points="118.87 111.95 118.87 62.65 88.8 87.65 118.87 111.95"/>
  <polygon class="cls-1" points="45.45 103.91 60.45 87.6 45.45 70.7 45.45 103.91"/>
</svg>